<svg xmlns="http://www.w3.org/2000/svg" version="1.1" xmlns:xlink="http://www.w3.org/1999/xlink" xmlns:svgjs="http://svgjs.com/svgjs" width="1440" height="560" preserveAspectRatio="none" viewBox="0 0 1440 560"><g mask="url(&quot;#SvgjsMask1036&quot;)" fill="none"><rect width="1440" height="560" x="0" y="0" fill="#0e2a47"></rect><path d="M27.487485186330268 187.8627334357877L115.12196518237971 234.45881298843634 161.71804473502837 146.8243329923869 74.08356473897891 100.22825343973825z" fill="rgba(28, 83, 142, 0.4)" class="triangle-float1"></path><path d="M642.544,256.326C677.23,256.514,717.599,254.739,734.193,224.279C750.432,194.47,729.404,160.28,710.067,132.381C694.06,109.288,670.58,93.918,642.544,92.055C610.359,89.916,575.689,95.632,557.454,122.239C537.02,152.055,533.231,192.776,552.598,223.296C570.94,252.2,608.312,256.141,642.544,256.326" fill="rgba(28, 83, 142, 0.4)" class="triangle-float2"></path><path d="M83.06 366.71 a94.12 94.12 0 1 0 188.24 0 a94.12 94.12 0 1 0 -188.24 0z" fill="rgba(28, 83, 142, 0.4)" class="triangle-float3"></path><path d="M617.2080880369415 103.02239220350734L702.8842468297851 225.38062760882764 825.2424822351053 139.7044688159841 739.5663234422618 17.3462334106638z" fill="rgba(28, 83, 142, 0.4)" class="triangle-float1"></path><path d="M533.902,317.489C575.923,318.092,606.783,282.129,626.591,245.065C645.082,210.464,649.24,170.212,631.24,135.353C611.607,97.331,576.637,67.771,533.902,65.557C487.346,63.145,438.174,82.553,417.375,124.274C398.001,163.136,423.279,205.286,445.705,242.471C467.068,277.894,492.54,316.896,533.902,317.489" fill="rgba(28, 83, 142, 0.4)" class="triangle-float2"></path><path d="M289.021,601.084C323.995,602.507,362.331,599.334,382.078,570.433C403.991,538.362,404.832,494.665,384.235,461.734C364.663,430.443,325.924,421.053,289.021,421.653C253.377,422.233,216.682,433.778,199.023,464.746C181.496,495.484,188.724,533.828,208.217,563.358C225.769,589.947,257.187,599.789,289.021,601.084" fill="rgba(28, 83, 142, 0.4)" class="triangle-float1"></path><path d="M433.132,567.252C462.463,567.336,490.76,556.675,507.582,532.647C527.472,504.237,539.763,468.07,524.305,437.025C507.439,403.153,470.927,381.305,433.132,383.128C397.819,384.831,371.684,413.448,356.015,445.14C342.216,473.05,342.793,505.897,359.418,532.222C374.987,556.875,403.974,567.168,433.132,567.252" fill="rgba(28, 83, 142, 0.4)" class="triangle-float2"></path><path d="M1263.7553592208458 336.146953551466L1300.8530289247553 457.4879636421587 1422.194039015448 420.3902939382491 1385.0963693115384 299.0492838475564z" fill="rgba(28, 83, 142, 0.4)" class="triangle-float1"></path><path d="M791.97 303.58 a132.25 132.25 0 1 0 264.5 0 a132.25 132.25 0 1 0 -264.5 0z" fill="rgba(28, 83, 142, 0.4)" class="triangle-float2"></path></g><defs><mask id="SvgjsMask1036"><rect width="1440" height="560" fill="#ffffff"></rect></mask><style>
            @keyframes float1 {
                0%{transform: translate(0, 0)}
                50%{transform: translate(-10px, 0)}
                100%{transform: translate(0, 0)}
            }

            .triangle-float1 {
                animation: float1 5s infinite;
            }

            @keyframes float2 {
                0%{transform: translate(0, 0)}
                50%{transform: translate(-5px, -5px)}
                100%{transform: translate(0, 0)}
            }

            .triangle-float2 {
                animation: float2 4s infinite;
            }

            @keyframes float3 {
                0%{transform: translate(0, 0)}
                50%{transform: translate(0, -10px)}
                100%{transform: translate(0, 0)}
            }

            .triangle-float3 {
                animation: float3 6s infinite;
            }
        </style></defs></svg>