<svg xmlns="http://www.w3.org/2000/svg" version="1.1" xmlns:xlink="http://www.w3.org/1999/xlink" xmlns:svgjs="http://svgjs.com/svgjs" width="1440" height="560" preserveAspectRatio="none" viewBox="0 0 1440 560"><g mask="url(&quot;#SvgjsMask1000&quot;)" fill="none"><rect width="1440" height="560" x="0" y="0" fill="#0e2a47"></rect><path d="M274.28 368.67a9.65 9.65 0 1 0 17.85 7.34z" stroke="#e73635"></path><path d="M853.71 450.74L862.1 450.74L862.1 464.52L853.71 464.52z" fill="#e73635"></path><path d="M1230.34 18.58L1236.17 18.58L1236.17 64.57L1230.34 64.57z" fill="#d3b714"></path><path d="M1279.73 42.04L1311.54 42.04L1311.54 46.92L1279.73 46.92z" fill="#e73635"></path><path d="M295.09 483.23 a47.85 47.85 0 1 0 95.7 0 a47.85 47.85 0 1 0 -95.7 0z" fill="#d3b714"></path><path d="M617.11 227.35a2.42 2.42 0 1 0-2.58 4.09z" stroke="#d3b714"></path><path d="M429.36 406.16L469.48 406.16L469.48 446.28L429.36 446.28z" stroke="#037b0b"></path><path d="M1107.03 249.9 a39.76 39.76 0 1 0 79.52 0 a39.76 39.76 0 1 0 -79.52 0z" stroke="#037b0b"></path><path d="M723.01 423.72 a3.26 3.26 0 1 0 6.52 0 a3.26 3.26 0 1 0 -6.52 0z" fill="#e73635"></path><path d="M696.43 26.63 a7.14 7.14 0 1 0 14.28 0 a7.14 7.14 0 1 0 -14.28 0z" fill="#037b0b"></path><path d="M988.4 555.34L1006.19 555.34L1006.19 591.05L988.4 591.05z" fill="#d3b714"></path><path d="M1253.7 195.84L1277.8 195.84L1277.8 219.94L1253.7 219.94z" fill="#e73635"></path><path d="M601.85 267.06L634.49 267.06L634.49 299.7L601.85 299.7z" fill="#e73635"></path><path d="M84.33 330.38a7.68 7.68 0 1 0-11.58-10.08z" fill="#037b0b"></path><path d="M144.38 267.15a6.9 6.9 0 1 0-0.08 13.8z" stroke="#e73635"></path><path d="M561.67 184.5 a51.64 51.64 0 1 0 103.28 0 a51.64 51.64 0 1 0 -103.28 0z" stroke="#e73635"></path><path d="M747.95 189.44 a10.07 10.07 0 1 0 20.14 0 a10.07 10.07 0 1 0 -20.14 0z" fill="#d3b714"></path><path d="M1063.94 165.37 a49.97 49.97 0 1 0 99.94 0 a49.97 49.97 0 1 0 -99.94 0z" fill="#d3b714"></path><path d="M889.75 235.59L908.69 235.59L908.69 254.53L889.75 254.53z" fill="#e73635"></path><path d="M1290.95 106.47a43.22 43.22 0 1 0-29-81.43z" fill="#d3b714"></path><path d="M243.36 441.28L259.65 441.28L259.65 452.22L243.36 452.22z" stroke="#037b0b"></path><path d="M788.46 155.26L814.1 155.26L814.1 192.67L788.46 192.67z" fill="#d3b714"></path><path d="M1273.53 198.91a12.08 12.08 0 1 0 7.84-22.86z" stroke="#e73635"></path><path d="M1234.03 431.07 a7.57 7.57 0 1 0 15.14 0 a7.57 7.57 0 1 0 -15.14 0z" fill="#d3b714"></path><path d="M1307.46 219.6L1335.17 219.6L1335.17 240.84L1307.46 240.84z" stroke="#e73635"></path><path d="M1014.94 63.62 a43.02 43.02 0 1 0 86.04 0 a43.02 43.02 0 1 0 -86.04 0z" stroke="#d3b714"></path><path d="M954.34 56.09L997.09 56.09L997.09 98.84L954.34 98.84z" stroke="#d3b714"></path><path d="M59.18 497.4a54.12 54.12 0 1 0-53.33-94.19z" stroke="#e73635"></path><path d="M225.01 140.53L231.86 140.53L231.86 180.53L225.01 180.53z" stroke="#d3b714"></path><path d="M371.68 207.49 a14.28 14.28 0 1 0 28.56 0 a14.28 14.28 0 1 0 -28.56 0z" stroke="#e73635"></path><path d="M731.5 279.94 a16.17 16.17 0 1 0 32.34 0 a16.17 16.17 0 1 0 -32.34 0z" stroke="#d3b714"></path><path d="M133.23 354.18L156.27 354.18L156.27 400.76L133.23 400.76z" fill="#037b0b"></path><path d="M625.98 430.71a14.07 14.07 0 1 0-22-17.55z" stroke="#e73635"></path></g><defs><mask id="SvgjsMask1000"><rect width="1440" height="560" fill="#ffffff"></rect></mask></defs></svg>